<?xml version="1.0" encoding="utf-8"?>
<!-- Generator: Adobe Illustrator 22.0.0, SVG Export Plug-In . SVG Version: 6.00 Build 0)  -->
<svg version="1.1" xmlns="http://www.w3.org/2000/svg" xmlns:xlink="http://www.w3.org/1999/xlink" x="0px" y="0px"
	 viewBox="0 0 256 256" style="enable-background:new 0 0 256 256;" xml:space="preserve">
<style type="text/css">
	.st0{display:none;}
	.st1{display:inline;}
	.st2{fill:none;stroke:#6B1D1D;stroke-width:0.5;stroke-miterlimit:10;}
	.st3{fill:#3A312A;}
	.st4{fill:#87796F;}
	.st5{fill:#D5DE58;}
	.st6{fill:#695B51;}
	.st7{fill:#FCE8CB;}
	.st8{fill:#F16C7A;}
	.st9{fill:#8AC6DD;}
	.st10{fill:#DECAAD;}
	.st11{fill:#D6DF58;}
	.st12{fill-rule:evenodd;clip-rule:evenodd;fill:#FCE8CB;}
	.st13{fill:#F5978A;}
	.st14{fill:#D7E057;}
	.st15{fill-rule:evenodd;clip-rule:evenodd;fill:#87796F;}
	.st16{fill:#6CA8BF;}
	.st17{fill:#B9C239;}
	.st18{fill:#D34E5C;}
	.st19{fill:#FAE6CA;}
	.st20{fill:#F8E4C8;}
	.st21{fill:#8AC5DC;}
	.st22{fill:#EF6D7A;}
	.st23{fill:#EB6E7A;}
	.st24{fill:#89C4DB;}
	.st25{fill-rule:evenodd;clip-rule:evenodd;fill:#F16C7A;}
	.st26{fill:#F7E3C7;}
	.st27{fill:#F6E2C6;}
	.st28{fill:#ED6E7A;}
	.st29{fill:#8AC3DA;}
	.st30{fill:#D5DC57;}
	.st31{fill-rule:evenodd;clip-rule:evenodd;fill:#D7E057;}
	.st32{fill-rule:evenodd;clip-rule:evenodd;fill:#F8E4C8;}
	.st33{fill:#D4DB56;}
	.st34{fill:#F59689;}
	.st35{fill:#DDC9AC;}
	.st36{fill:#D24E5C;}
	.st37{fill:#6A5C52;}
	.st38{fill:#6CA6BE;}
	.st39{fill:#B8C136;}
	.st40{fill-rule:evenodd;clip-rule:evenodd;fill:#FAE6CA;}
</style>
<g id="Layer_2" class="st0">
	<g class="st1">
		<g>
			<line class="st2" x1="0" y1="4.829" x2="256" y2="4.829"/>
			<line class="st2" x1="0" y1="16.56" x2="256" y2="16.56"/>
			<line class="st2" x1="0" y1="28.29" x2="256" y2="28.29"/>
			<line class="st2" x1="0" y1="40.021" x2="256" y2="40.021"/>
			<line class="st2" x1="0" y1="51.751" x2="256" y2="51.751"/>
			<line class="st2" x1="0" y1="63.482" x2="256" y2="63.482"/>
			<line class="st2" x1="0" y1="75.213" x2="256" y2="75.213"/>
			<line class="st2" x1="0" y1="86.943" x2="256" y2="86.943"/>
			<line class="st2" x1="0" y1="98.674" x2="256" y2="98.674"/>
			<line class="st2" x1="0" y1="110.404" x2="256" y2="110.404"/>
			<line class="st2" x1="0" y1="122.135" x2="256" y2="122.135"/>
			<line class="st2" x1="0" y1="133.865" x2="256" y2="133.865"/>
			<line class="st2" x1="0" y1="145.596" x2="256" y2="145.596"/>
			<line class="st2" x1="0" y1="157.326" x2="256" y2="157.326"/>
			<line class="st2" x1="0" y1="169.057" x2="256" y2="169.057"/>
			<line class="st2" x1="0" y1="180.788" x2="256" y2="180.788"/>
			<line class="st2" x1="0" y1="192.518" x2="256" y2="192.518"/>
			<line class="st2" x1="0" y1="204.249" x2="256" y2="204.249"/>
			<line class="st2" x1="0" y1="215.979" x2="256" y2="215.979"/>
			<line class="st2" x1="0" y1="227.71" x2="256" y2="227.71"/>
			<line class="st2" x1="0" y1="239.44" x2="256" y2="239.44"/>
			<line class="st2" x1="0" y1="251.171" x2="256" y2="251.171"/>
		</g>
		<g>
			<line class="st2" x1="251.171" y1="0" x2="251.171" y2="256"/>
			<line class="st2" x1="239.44" y1="0" x2="239.44" y2="256"/>
			<line class="st2" x1="227.71" y1="0" x2="227.71" y2="256"/>
			<line class="st2" x1="215.979" y1="0" x2="215.979" y2="256"/>
			<line class="st2" x1="204.249" y1="0" x2="204.249" y2="256"/>
			<line class="st2" x1="192.518" y1="0" x2="192.518" y2="256"/>
			<line class="st2" x1="180.787" y1="0" x2="180.787" y2="256"/>
			<line class="st2" x1="169.057" y1="0" x2="169.057" y2="256"/>
			<line class="st2" x1="157.326" y1="0" x2="157.326" y2="256"/>
			<line class="st2" x1="145.596" y1="0" x2="145.596" y2="256"/>
			<line class="st2" x1="133.865" y1="0" x2="133.865" y2="256"/>
			<line class="st2" x1="122.135" y1="0" x2="122.135" y2="256"/>
			<line class="st2" x1="110.404" y1="0" x2="110.404" y2="256"/>
			<line class="st2" x1="98.674" y1="0" x2="98.674" y2="256"/>
			<line class="st2" x1="86.943" y1="0" x2="86.943" y2="256"/>
			<line class="st2" x1="75.212" y1="0" x2="75.212" y2="256"/>
			<line class="st2" x1="63.482" y1="0" x2="63.482" y2="256"/>
			<line class="st2" x1="51.751" y1="0" x2="51.751" y2="256"/>
			<line class="st2" x1="40.021" y1="0" x2="40.021" y2="256"/>
			<line class="st2" x1="28.29" y1="0" x2="28.29" y2="256"/>
			<line class="st2" x1="16.56" y1="0" x2="16.56" y2="256"/>
			<line class="st2" x1="4.829" y1="0" x2="4.829" y2="256"/>
		</g>
	</g>
</g>
<g id="Layer_1">
	<g>
		<path class="st14" d="M47.911,26.064c0,0,3.408,12.659,13.222,13.246c0,0-13.1,4.525-13.321,14.202
			c0,0-2.579-13.572-12.925-14.059C34.887,39.453,46.937,37.627,47.911,26.064z"/>
		<path class="st3" d="M47.811,55.012c-0.713,0-1.335-0.506-1.472-1.217c-0.024-0.124-2.495-12.418-11.523-12.843
			c-0.77-0.037-1.387-0.651-1.427-1.421c-0.04-0.771,0.511-1.445,1.273-1.561c0.441-0.069,10.894-1.817,11.754-12.033
			c0.061-0.725,0.634-1.301,1.359-1.367c0.737-0.06,1.393,0.399,1.583,1.102c0.032,0.116,3.259,11.626,11.864,12.141
			c0.714,0.043,1.297,0.584,1.396,1.292c0.098,0.708-0.319,1.388-0.994,1.623c-0.121,0.042-12.118,4.311-12.313,12.819
			c-0.018,0.767-0.61,1.396-1.374,1.459C47.895,55.01,47.852,55.012,47.811,55.012z M40.07,39.282
			c3.878,1.969,6.23,5.746,7.587,8.876c2.026-4.022,5.941-6.787,8.949-8.427c-4.134-1.842-6.783-5.651-8.333-8.722
			C46.478,35.369,43,37.877,40.07,39.282z"/>
		<path class="st14" d="M26.212,43.044c0,0,2.411,8.954,9.352,9.369c0,0-9.266,3.201-9.422,10.045c0,0-1.824-9.6-9.142-9.944
			C17,52.515,25.524,51.223,26.212,43.044z"/>
		<path class="st3" d="M26.141,63.959c-0.713,0-1.337-0.507-1.472-1.22c-0.016-0.082-1.704-8.441-7.739-8.726
			c-0.77-0.037-1.387-0.651-1.427-1.421c-0.04-0.771,0.511-1.445,1.273-1.561c0.296-0.047,7.364-1.243,7.942-8.113
			c0.061-0.726,0.635-1.303,1.36-1.368c0.727-0.064,1.392,0.4,1.582,1.102l0,0c0.021,0.079,2.227,7.919,7.994,8.264
			c0.715,0.043,1.299,0.584,1.396,1.293c0.098,0.709-0.319,1.388-0.996,1.622c-0.081,0.028-8.282,2.953-8.413,8.662
			c-0.018,0.767-0.611,1.397-1.376,1.461C26.224,63.958,26.182,63.959,26.141,63.959z M21.622,52.432
			c2.107,1.333,3.523,3.394,4.447,5.28c1.376-2.232,3.515-3.872,5.365-4.973c-2.287-1.269-3.884-3.35-4.941-5.224
			C25.319,49.802,23.478,51.39,21.622,52.432z"/>
		<path class="st14" d="M26.212,16.387c0,0,2.411,8.954,9.352,9.37c0,0-9.266,3.201-9.422,10.045c0,0-1.824-9.6-9.142-9.944
			C17,25.857,25.524,24.566,26.212,16.387z"/>
		<path class="st3" d="M26.141,37.302c-0.713,0-1.337-0.507-1.472-1.22C24.652,36,22.965,27.64,16.93,27.356
			c-0.77-0.037-1.388-0.651-1.428-1.421c-0.04-0.771,0.511-1.445,1.273-1.561c0.296-0.047,7.364-1.243,7.942-8.114
			c0.061-0.726,0.635-1.303,1.36-1.368c0.727-0.064,1.392,0.4,1.582,1.101l0,0c0.021,0.079,2.227,7.92,7.994,8.265
			c0.714,0.043,1.299,0.584,1.396,1.293c0.098,0.709-0.32,1.388-0.996,1.622c-0.081,0.028-8.282,2.952-8.413,8.662
			c-0.018,0.767-0.611,1.397-1.376,1.461C26.224,37.3,26.182,37.302,26.141,37.302z M21.622,25.774
			c2.107,1.333,3.523,3.395,4.447,5.28c1.376-2.232,3.515-3.872,5.365-4.972c-2.287-1.269-3.884-3.35-4.941-5.224
			C25.319,23.144,23.478,24.733,21.622,25.774z"/>
		<polygon class="st4" points="54,55.844 202,55.844 232,83.671 24,83.671 		"/>
		<path class="st3" d="M232,85.171H24c-0.617,0-1.171-0.378-1.397-0.952c-0.225-0.574-0.076-1.228,0.377-1.648l30-27.827
			c0.277-0.257,0.642-0.4,1.02-0.4h148c0.378,0,0.743,0.143,1.02,0.4l30,27.827c0.452,0.419,0.602,1.073,0.376,1.648
			C233.171,84.793,232.617,85.171,232,85.171z M27.823,82.171h200.354l-26.766-24.827H54.588L27.823,82.171z"/>
		<rect x="71.906" y="62.613" class="st7" width="112.188" height="167.667"/>
		<path class="st3" d="M184.094,231.78H71.906c-0.829,0-1.5-0.671-1.5-1.5V62.613c0-0.829,0.671-1.5,1.5-1.5h112.188
			c0.829,0,1.5,0.671,1.5,1.5V230.28C185.594,231.109,184.922,231.78,184.094,231.78z M73.406,228.78h109.188V64.113H73.406V228.78z
			"/>
		<polygon class="st4" points="102.599,37.57 71.906,62.613 184.094,62.613 128,16.844 112.784,29.259 		"/>
		<path class="st3" d="M184.094,64.113H71.906c-0.634,0-1.2-0.399-1.413-0.997s-0.027-1.265,0.465-1.666l30.692-25.043
			c0.641-0.524,1.586-0.428,2.11,0.214c0.524,0.642,0.428,1.587-0.214,2.11l-27.43,22.381h103.766L128,18.78l-14.268,11.642
			c-0.642,0.524-1.587,0.428-2.11-0.214c-0.524-0.642-0.428-1.587,0.214-2.11l15.216-12.416c0.552-0.45,1.345-0.45,1.896,0
			l56.094,45.77c0.492,0.401,0.678,1.068,0.465,1.666S184.728,64.113,184.094,64.113z"/>
		<path class="st8" d="M153.095,230.28h-50.19v-24.405c0-13.86,11.235-25.095,25.095-25.095l0,0
			c13.86,0,25.095,11.235,25.095,25.095V230.28z"/>
		<path class="st3" d="M153.095,231.78h-50.19c-0.829,0-1.5-0.671-1.5-1.5v-24.405c0-14.665,11.931-26.595,26.595-26.595
			c14.665,0,26.595,11.93,26.595,26.595v24.405C154.595,231.109,153.924,231.78,153.095,231.78z M104.405,228.78h47.19v-22.905
			c0-13.01-10.585-23.595-23.595-23.595c-13.01,0-23.595,10.584-23.595,23.595V228.78z"/>
		<path class="st3" d="M128,231.78c-0.829,0-1.5-0.671-1.5-1.5v-49.5c0-0.829,0.671-1.5,1.5-1.5c0.829,0,1.5,0.671,1.5,1.5v49.5
			C129.5,231.109,128.829,231.78,128,231.78z"/>
		<polygon class="st7" points="24,155.446 24,230.28 71.906,230.28 71.906,83.671 24,83.671 24,142.242 		"/>
		<path class="st3" d="M71.906,231.78H24c-0.829,0-1.5-0.671-1.5-1.5v-74.835c0-0.829,0.671-1.5,1.5-1.5c0.829,0,1.5,0.671,1.5,1.5
			v73.335h44.906V85.171H25.5v57.071c0,0.829-0.671,1.5-1.5,1.5c-0.829,0-1.5-0.671-1.5-1.5V83.671c0-0.829,0.671-1.5,1.5-1.5
			h47.906c0.829,0,1.5,0.671,1.5,1.5V230.28C73.406,231.109,72.735,231.78,71.906,231.78z"/>
		
			<rect x="184.125" y="83.671" transform="matrix(-1 -1.224647e-16 1.224647e-16 -1 416.1563 313.9509)" class="st7" width="47.906" height="146.609"/>
		<path class="st3" d="M232.031,231.78h-47.906c-0.829,0-1.5-0.671-1.5-1.5V83.671c0-0.829,0.671-1.5,1.5-1.5h47.906
			c0.829,0,1.5,0.671,1.5,1.5V230.28C233.531,231.109,232.86,231.78,232.031,231.78z M185.625,228.78h44.906V85.171h-44.906V228.78z
			"/>
		<rect x="94.167" y="81.78" class="st9" width="22" height="22"/>
		<path class="st3" d="M116.166,105.28h-22c-0.829,0-1.5-0.671-1.5-1.5v-22c0-0.829,0.671-1.5,1.5-1.5h22c0.829,0,1.5,0.671,1.5,1.5
			v22C117.666,104.609,116.995,105.28,116.166,105.28z M95.666,102.28h19v-19h-19V102.28z"/>
		<rect x="139.833" y="81.78" class="st9" width="22" height="22"/>
		<path class="st3" d="M161.833,105.28h-22c-0.829,0-1.5-0.671-1.5-1.5v-22c0-0.829,0.671-1.5,1.5-1.5h22c0.829,0,1.5,0.671,1.5,1.5
			v22C163.333,104.609,162.662,105.28,161.833,105.28z M141.333,102.28h19v-19h-19V102.28z"/>
		<rect x="94.167" y="116.28" class="st9" width="22" height="22"/>
		<path class="st3" d="M116.166,139.78h-22c-0.829,0-1.5-0.671-1.5-1.5v-22c0-0.829,0.671-1.5,1.5-1.5h22c0.829,0,1.5,0.671,1.5,1.5
			v22C117.666,139.109,116.995,139.78,116.166,139.78z M95.666,136.78h19v-19h-19V136.78z"/>
		<rect x="139.833" y="116.28" class="st9" width="22" height="22"/>
		<path class="st3" d="M161.833,139.78h-22c-0.829,0-1.5-0.671-1.5-1.5v-22c0-0.829,0.671-1.5,1.5-1.5h22c0.829,0,1.5,0.671,1.5,1.5
			v22C163.333,139.109,162.662,139.78,161.833,139.78z M141.333,136.78h19v-19h-19V136.78z"/>
		<rect x="94.167" y="150.78" class="st9" width="22" height="22"/>
		<path class="st3" d="M116.166,174.28h-22c-0.829,0-1.5-0.671-1.5-1.5v-22c0-0.829,0.671-1.5,1.5-1.5h22c0.829,0,1.5,0.671,1.5,1.5
			v22C117.666,173.609,116.995,174.28,116.166,174.28z M95.666,171.28h19v-19h-19V171.28z"/>
		<rect x="37" y="100.78" class="st9" width="22" height="22"/>
		<path class="st3" d="M59,124.28H37c-0.829,0-1.5-0.671-1.5-1.5v-22c0-0.829,0.671-1.5,1.5-1.5h22c0.829,0,1.5,0.671,1.5,1.5v22
			C60.5,123.609,59.829,124.28,59,124.28z M38.5,121.28h19v-19h-19V121.28z"/>
		<rect x="37" y="135.28" class="st9" width="22" height="22"/>
		<path class="st3" d="M59,158.78H37c-0.829,0-1.5-0.671-1.5-1.5v-22c0-0.829,0.671-1.5,1.5-1.5h22c0.829,0,1.5,0.671,1.5,1.5v22
			C60.5,158.109,59.829,158.78,59,158.78z M38.5,155.78h19v-19h-19V155.78z"/>
		<rect x="37" y="169.78" class="st9" width="22" height="22"/>
		<path class="st3" d="M59,193.28H37c-0.829,0-1.5-0.671-1.5-1.5v-22c0-0.829,0.671-1.5,1.5-1.5h22c0.829,0,1.5,0.671,1.5,1.5v22
			C60.5,192.609,59.829,193.28,59,193.28z M38.5,190.28h19v-19h-19V190.28z"/>
		<rect x="197" y="100.78" class="st9" width="22" height="22"/>
		<path class="st3" d="M219,124.28h-22c-0.829,0-1.5-0.671-1.5-1.5v-22c0-0.829,0.671-1.5,1.5-1.5h22c0.829,0,1.5,0.671,1.5,1.5v22
			C220.5,123.609,219.829,124.28,219,124.28z M198.5,121.28h19v-19h-19V121.28z"/>
		<rect x="197" y="135.28" class="st9" width="22" height="22"/>
		<path class="st3" d="M219,158.78h-22c-0.829,0-1.5-0.671-1.5-1.5v-22c0-0.829,0.671-1.5,1.5-1.5h22c0.829,0,1.5,0.671,1.5,1.5v22
			C220.5,158.109,219.829,158.78,219,158.78z M198.5,155.78h19v-19h-19V155.78z"/>
		<rect x="197" y="169.78" class="st9" width="22" height="22"/>
		<path class="st3" d="M219,193.28h-22c-0.829,0-1.5-0.671-1.5-1.5v-22c0-0.829,0.671-1.5,1.5-1.5h22c0.829,0,1.5,0.671,1.5,1.5v22
			C220.5,192.609,219.829,193.28,219,193.28z M198.5,190.28h19v-19h-19V190.28z"/>
		<rect x="139.833" y="150.78" class="st9" width="22" height="22"/>
		<path class="st3" d="M161.833,174.28h-22c-0.829,0-1.5-0.671-1.5-1.5v-22c0-0.829,0.671-1.5,1.5-1.5h22c0.829,0,1.5,0.671,1.5,1.5
			v22C163.333,173.609,162.662,174.28,161.833,174.28z M141.333,171.28h19v-19h-19V171.28z"/>
		<rect x="16.5" y="230.28" class="st9" width="223" height="9.333"/>
		<path class="st3" d="M239.5,241.113h-223c-0.829,0-1.5-0.671-1.5-1.5v-9.333c0-0.829,0.671-1.5,1.5-1.5h223
			c0.829,0,1.5,0.671,1.5,1.5v9.333C241,240.442,240.329,241.113,239.5,241.113z M18,238.113h220v-6.333H18V238.113z"/>
		<polygon class="st6" points="228.18,82.174 213.18,82.174 186.41,57.344 201.41,57.344 		"/>
		<path class="st10" d="M215.53,85.174v14.11H219c0.83,0,1.5,0.67,1.5,1.5v22c0,0.83-0.67,1.5-1.5,1.5h-3.47v9.5H219
			c0.83,0,1.5,0.67,1.5,1.5v22c0,0.83-0.67,1.5-1.5,1.5h-3.47v9.5H219c0.83,0,1.5,0.67,1.5,1.5v22c0,0.83-0.67,1.5-1.5,1.5h-3.47
			v35.5h15V85.174H215.53z"/>
		<rect x="223" y="231.784" class="st16" width="15" height="6.33"/>
	</g>
</g>
</svg>
