<!-- icon666.com - MILLIONS vector ICONS FREE --><svg viewBox="0 0 60 60" xmlns="http://www.w3.org/2000/svg"><g id="Page-1" fill="none" fill-rule="evenodd"><g id="006---Desktop-Computer-Brain"><g id="Icons_copy" transform="translate(1 1)"><path id="Path" d="m58 3v38h-58v-38c0-1.65685425 1.34314575-3 3-3h52c1.6568542 0 3 1.34314575 3 3z" fill="#00bcd4"></path><path id="Path" d="m55 0h-3c1.6568542 0 3 1.34314575 3 3v38h3v-38c0-1.65685425-1.3431458-3-3-3z" fill="#00838f"></path><path id="Path" d="m29 7.36v24.5c.0023929 1.9720068-1.3887358 3.6710125-3.322449 4.0577551-1.9337132.3867427-3.8712957-.6465207-4.627551-2.4677551-1.2194446-.001002-2.3504588-.6366333-2.9853472-1.6777687-.6348884-1.0411353-.6821138-2.3376653-.1246528-3.4222313-1.3046908-.0984179-2.4159385-.9859182-2.8004091-2.2365527-.3844707-1.2506344.0363168-2.6091137 1.0604091-3.4234473-.8040379-.8113961-1.2373904-1.9187612-1.197633-3.0603653.0397573-1.1416041.5490964-2.2161392 1.407633-2.9696347-.3134942-1.1237349-.09472-2.3291639.5936683-3.2710664.6883884-.9419025 1.7704635-1.5163891 2.9363317-1.5589336v-.01c-.3206637-.4681093-.4915428-1.0225944-.49-1.59.0013852-1.20497639.756845-2.28020758 1.89-2.69h.01c7.65-5.61 7.65-.18 7.65-.18z" fill="#ef314c"></path><path id="Path" d="m25.078 5.373c.5761299.50091951.9114787 1.22362899.922 1.987v24.5c-.0001887 1.7029007-1.0458019 3.231013-2.633 3.848.474986.1899826.9814374.289034 1.493.292 1.0984031.001329 2.1522007-.4344216 2.9288896-1.2111104.7766888-.7766889 1.2124394-1.8304865 1.2111104-2.9288896v-24.5s0-3.47-3.922-1.987z" fill="#bb193b"></path><path id="Path" d="m43 25.18c.0009698 1.663381-1.2812534 3.0459142-2.94 3.17.557461 1.084566.5102356 2.381096-.1246528 3.4222313-.6348884 1.0411354-1.7659026 1.6767667-2.9853472 1.6777687-.7562553 1.8212344-2.6938378 2.8544978-4.627551 2.4677551-1.9337132-.3867426-3.3248419-2.0857483-3.322449-4.0577551v-24.5s0-5.43 7.65.18h.01c1.133155.40979242 1.8886148 1.48502361 1.89 2.69.0015428.5674056-.1693363 1.1218907-.49 1.59v.01c1.1658682.0425445 2.2479433.6170311 2.9363317 1.5589336.6883883.9419025.9071625 2.1473315.5936683 3.2710664.8585366.7534955 1.3678757 1.8280306 1.407633 2.9696347.0397574 1.1416041-.3935951 2.2489692-1.197633 3.0603653.7576083.6045155 1.1991763 1.520769 1.2 2.49z" fill="#ef314c"></path><path id="Path" d="m41.8 22.69c.8040379-.8113961 1.2373904-1.9187612 1.197633-3.0603653-.0397573-1.1416041-.5490964-2.2161392-1.407633-2.9696347.3134942-1.1237349.09472-2.3291639-.5936683-3.2710664-.6883884-.9419025-1.7704635-1.5163891-2.9363317-1.5589336v-.01c.3206637-.4681093.4915428-1.0225944.49-1.59-.0013852-1.20497639-.756845-2.28020758-1.89-2.69h-.01c-3.874-2.84-5.784-2.85-6.728-2.167 1.3331965.55395527 2.5868423 1.28267052 3.728 2.167h.01c1.133155.40979242 1.8886148 1.48502361 1.89 2.69.0015428.5674056-.1693363 1.1218907-.49 1.59v.01c1.1658682.0425445 2.2479433.6170311 2.9363317 1.5589336.6883883.9419025.9071625 2.1473315.5936683 3.2710664.8585366.7534955 1.3678757 1.8280306 1.407633 2.9696347.0397574 1.1416041-.3935951 2.2489692-1.197633 3.0603653 1.0240923.8143336 1.4448798 2.1728129 1.0604091 3.4234473-.3844706 1.2506345-1.4957183 2.1381348-2.8004091 2.2365527.557461 1.084566.5102356 2.381096-.1246528 3.4222313-.6348884 1.0411354-1.7659026 1.6767667-2.9853472 1.6777687-.4335133 1.0361773-1.2699878 1.8513519-2.317 2.258 2.091689.8356175 4.465793-.1726065 5.317-2.258 1.2194446-.001002 2.3504588-.6366333 2.9853472-1.6777687.6348884-1.0411353.6821138-2.3376653.1246528-3.4222313 1.3046908-.0984179 2.4159385-.9859182 2.8004091-2.2365527.3844707-1.2506344-.0363168-2.6091137-1.0604091-3.4234473z" fill="#bb193b"></path><path id="Path" d="m58 41v4c-.0032948 1.1032019-.8967981 1.9967052-2 2h-54c-1.10320187-.0032948-1.9967052-.8967981-2-2v-4z" fill="#9e9e9e"></path><path id="Path" d="m55 41v4c-.0032948 1.1032019-.8967981 1.9967052-2 2h3c1.1032019-.0032948 1.9967052-.8967981 2-2v-4z" fill="#707070"></path><path id="Rectangle" d="m22 47h14v5h-14z" fill="#606060"></path><path id="Path" d="m45 56v1c0 .5522847-.4477153 1-1 1h-30c-.5522847 0-1-.4477153-1-1v-1c0-2.209139 1.790861-4 4-4h24c2.209139 0 4 1.790861 4 4z" fill="#9e9e9e"></path><path id="Path" d="m41 52h-3c2.209139 0 4 1.790861 4 4v1c0 .5522847-.4477153 1-1 1h3c.5522847 0 1-.4477153 1-1v-1c0-2.209139-1.790861-4-4-4z" fill="#707070"></path><g fill="#ffdf00"><circle id="Oval" cx="11" cy="6.998" r="2"></circle><circle id="Oval" cx="8" cy="15.998" r="2"></circle><circle id="Oval" cx="11" cy="33.998" r="2"></circle><circle id="Oval" cx="8" cy="24.998" r="2"></circle><circle id="Oval" cx="47" cy="6.998" r="2"></circle><circle id="Oval" cx="50" cy="15.998" r="2"></circle><circle id="Oval" cx="47" cy="33.998" r="2"></circle><circle id="Oval" cx="50" cy="24.998" r="2"></circle></g></g><g id="Icons" fill="#000"><path id="Shape" d="m56 0h-52c-2.209139 0-4 1.790861-4 4v42c0 1.6568542 1.34314575 3 3 3h19v3h-4c-2.7600532.0033061-4.9966939 2.2399468-5 5v1c0 1.1045695.8954305 2 2 2h30c1.1045695 0 2-.8954305 2-2v-1c-.0033061-2.7600532-2.2399468-4.9966939-5-5h-4v-3h19c1.6568542 0 3-1.3431458 3-3v-42c0-2.209139-1.790861-4-4-4zm-54 4c0-1.1045695.8954305-2 2-2h52c1.1045695 0 2 .8954305 2 2v37h-56zm43 53v1h-30v-1c0-1.6568542 1.3431458-3 3-3h24c1.6568542 0 3 1.3431458 3 3zm-9-5h-12v-3h12zm22-6c0 .5522847-.4477153 1-1 1h-54c-.55228475 0-1-.4477153-1-1v-3h56z" fill-rule="nonzero"></path><path id="Path" d="m24.417 21.409c1.1955549-.0969109 2.3183657-.6133331 3.17-1.458.2527654-.2525868.3515768-.6208353.259213-.96603-.0923639-.3451946-.3618707-.6148921-.707-.7075s-.7134476.0059432-.966213.25853c-1.2879697 1.2141445-3.3133287 1.1650827-4.541-.11-.3714115-.4089668-1.0040331-.4394115-1.413-.068-.4089668.3714115-.4394115 1.0040331-.068 1.413.5886188.6455278 1.3319989 1.1304457 2.16 1.409-.1972132.2953881-.4747952.52821-.8.671-.3371718.1347225-.574827.4416206-.6208801.8017791-.0460532.3601584.1067325.7169818.3991564.9322102s.6785345.2550407 1.0087237.1040107c.9951801-.4286963 1.7641988-1.2561445 2.119-2.28z"></path><path id="Path" d="m27 24c-.1970989.0000545-.3940514.0107366-.59.032-1.6101323.1296531-2.9958612 1.1885001-3.544 2.708-.5498095 1.5759455-.1430318 3.3276199 1.045 4.5.4705243.4655085.7379561 1.0981429.744 1.76 0 .5522847.4477153 1 1 1s1-.4477153 1-1c-.0050072-1.1859112-.4779486-2.321905-1.316-3.161-.6481751-.6267361-.877802-1.5705416-.59-2.425.2928858-.7960817 1.0292685-1.3432659 1.876-1.394.1245618-.0132503.2497354-.0199262.375-.02.5522847 0 1-.4477153 1-1s-.4477153-1-1-1z"></path><path id="Path" d="m33.212 24.032c-.1959441-.0213178-.3928996-.0320001-.59-.032-.5522847 0-1 .4477153-1 1s.4477153 1 1 1c.1249319.0000737.2497727.0067496.374.02.8470105.0506034 1.5837526.597763 1.877 1.394.2875528.854649.0575293 1.7984849-.591 2.425-.8371344.8396256-1.3096096 1.9753626-1.315 3.161 0 .5522847.4477153 1 1 1s1-.4477153 1-1c.006104-.6616463.2731178-1.2941419.743-1.76 1.188606-1.1720365 1.5958118-2.9238779 1.046-4.5-.5483511-1.5193444-1.933962-2.5781012-3.544-2.708z"></path><path id="Path" d="m38.492 21.851c-.3252048-.14279-.6027868-.3756119-.8-.671.8280011-.2785543 1.5713812-.7634722 2.16-1.409.3714115-.4089669.3409668-1.0415885-.068-1.413-.4089669-.3714115-1.0415885-.3409668-1.413.068-1.2276713 1.2750827-3.2530303 1.3241445-4.541.11-.3907415-.3904653-1.0240347-.3902414-1.4145.0005-.3904653.3907415-.3902414 1.0240347.0005 1.4145.8517339.8445232 1.9744894 1.3609199 3.17 1.458.3554821 1.0244421 1.1256797 1.8519872 2.122 2.28.3301892.15103.7162998.1112177 1.0087237-.1040107s.4452096-.5720518.3991564-.9322102c-.0460531-.3601585-.2837083-.6670566-.6208801-.8017791z"></path><path id="Shape" d="m51 20c1.5272079.0063217 2.8154186-1.1356803 2.9922422-2.6526303.1768237-1.5169501-.8141827-2.9246296-2.3018992-3.2697433-1.4877166-.3451137-2.9972562.4825005-3.506343 1.9223736h-4.521c-.0898472-.7130777-.339372-1.3967073-.73-2h4.067c1.1045695 0 2-.8954305 2-2v-1.186c1.3775467-.4870363 2.2038721-1.89566623 1.9567957-3.33573306s-1.4956868-2.49269406-2.9567957-2.49269406-2.7097193 1.05262723-2.9567957 2.49269406.579249 2.84869676 1.9567957 3.33573306v1.186h-6.541c.0545566-.2538071.0837004-.5124166.087-.772-.0023795-1.56455327-.9508539-2.9722474-2.4-3.562-3.324-2.417-5.759-3.183-7.435-2.333-.2643591.13664376-.5045412.31568244-.711.53-.2069854-.2148499-.4478591-.39423836-.713-.531-1.675-.85-4.114-.083-7.441 2.337-1.4435869.59302394-2.3877038 1.99735845-2.392 3.558.0032996.2595834.0324434.5181929.087.772h-6.541v-1.185c1.3775467-.4870363 2.2038721-1.89566623 1.9567957-3.33573306s-1.4956868-2.49269406-2.9567957-2.49269406-2.70971927 1.05262723-2.95679568 2.49269406.57924899 2.84869676 1.95679568 3.33573306v1.186c0 1.1045695.8954305 2 2 2h4.067c-.390628.6032927-.6401528 1.2869223-.73 2h-4.521c-.4870363-1.3775467-1.89566623-2.2038721-3.33573306-1.9567957s-2.49269406 1.4956868-2.49269406 2.9567957 1.05262723 2.7097193 2.49269406 2.9567957 2.84869676-.579249 3.33573306-1.9567957h4.006c-1.11459 1.7187066-1.094118 3.9371553.052 5.635-.3106773.408501-.5423163.87144-.683 1.365h-3.375c-.4870363-1.3775467-1.89566623-2.2038721-3.33573306-1.9567957s-2.49269406 1.4956868-2.49269406 2.9567957 1.05262723 2.7097193 2.49269406 2.9567957 2.84869676-.579249 3.33573306-1.9567957h3.275c.1487308.7458353.497512 1.4371756 1.009 2h-3.1c-1.1045695 0-2 .8954305-2 2v1.184c-1.37754669.4870363-2.20387209 1.8956662-1.95679568 3.3357331.24707641 1.4400668 1.49568678 2.492694 2.95679568 2.492694s2.7097193-1.0526272 2.9567957-2.492694c.2470764-1.4400669-.579249-2.8486968-1.9567957-3.3357331v-1.184h4.55c.0237844 2.2176355 1.6577018 4.0882418 3.852 4.41.8597255 1.515457 2.4313638 2.4894397 4.1710824 2.5849219 1.7397187.0954823 3.4085076-.7006537 4.4289176-2.1129219 1.02041 1.4122682 2.6891989 2.2084042 4.4289176 2.1129219 1.7397186-.0954822 3.3113569-1.0694649 4.1710824-2.5849219 2.1927118-.3235387 3.8245195-2.1936717 3.848-4.41h4.55v1.184c-1.3775467.4870363-2.2038721 1.8956662-1.9567957 3.3357331.2470764 1.4400668 1.4956868 2.492694 2.9567957 2.492694s2.7097193-1.0526272 2.9567957-2.492694c.2470764-1.4400669-.579249-2.8486968-1.9567957-3.3357331v-1.184c0-1.1045695-.8954305-2-2-2h-3.1c.5122129-.5625944.8616958-1.2539553 1.011-2h3.275c.4870363 1.3775467 1.8956662 2.2038721 3.3357331 1.9567957 1.4400668-.2470764 2.492694-1.4956868 2.492694-2.9567957s-1.0526272-2.7097193-2.492694-2.9567957c-1.4400669-.2470764-2.8486968.579249-3.3357331 1.9567957h-3.377c-.1404907-.4933289-.3721526-.9559743-.683-1.364 1.1460291-1.6982379 1.1664994-3.9169056.052-5.636h4.006c.4222546 1.1943509 1.5492146 1.9947486 2.816 2zm-3-13c.5522847 0 1 .44771525 1 1s-.4477153 1-1 1-1-.44771525-1-1 .4477153-1 1-1zm-36 0c.5522847 0 1 .44771525 1 1s-.4477153 1-1 1-1-.44771525-1-1 .4477153-1 1-1zm0 29c-.5522847 0-1-.4477153-1-1s.4477153-1 1-1 1 .4477153 1 1-.4477153 1-1 1zm36 0c-.5522847 0-1-.4477153-1-1s.4477153-1 1-1 1 .4477153 1 1-.4477153 1-1 1zm3-20c.5522847 0 1 .4477153 1 1s-.4477153 1-1 1-1-.4477153-1-1 .4477153-1 1-1zm-42 2c-.55228475 0-1-.4477153-1-1s.44771525-1 1-1 1 .4477153 1 1-.44771525 1-1 1zm0 9c-.55228475 0-1-.4477153-1-1s.44771525-1 1-1 1 .4477153 1 1-.44771525 1-1 1zm16.863 9c-1.2665805.0023659-2.4094107-.7597842-2.894-1.93-.1553781-.3724703-.5194204-.6150337-.923-.615-1.3807119 0-2.5-1.1192881-2.5-2.5-.0013664-.3944753.0933634-.783348.276-1.133.1591557-.2982761.1568248-.6567734-.006196-.9529548-.1630208-.2961813-.4646559-.489939-.801804-.5150452-1.1345164-.0890566-2.0107192-1.0339983-2.014-2.172.0028749-.3937357.1139197-.7791063.321-1.114.836037.5500891 1.8152235.8425237 2.816.841.5522847 0 1-.4477153 1-1s-.4477153-1-1-1c-1.3066865.0009826-2.4769475-.8086158-2.9368046-2.031711-.4598571-1.2230953-.112858-2.6031503.8708046-3.463289.2692429-.2651713.3846152-.6493689.306-1.019-.0688265-.2471574-.1041422-.5024398-.105-.759.0011348-1.3422659.9485275-2.4975721 2.2645783-2.7615594s2.6357121.4365694 3.1544217 1.6745594c.1353536.3337529.4397216.5689392.7968267.6157111.357105.0467718.7117746-.1020972.9285148-.3897346s.2620648-.6696036.1186585-.9999765c-.6827355-1.6279717-2.2039825-2.7498002-3.961-2.921-.3243861-.9347247.1397688-1.95980603 1.0562317-2.3326767.9164628-.37287066 1.9644355.03698873 2.3847683.9326767.1407934.3368623.4539822.5702197.8170417.608779.3630594.0385592.7182769-.1238091.9266853-.4235839s.2368788-.68930315.074273-1.0161951c-.340597-.73816506-.9063397-1.34941929-1.616-1.746 2.04-1.107 2.9-.889 3.159-.762.591.293.624 1.25.624 1.252v3.614c-.2924632-.1017193-.5993818-.1557424-.909-.16-.5522847 0-1 .4477153-1 1s.4477153 1 1 1c.5017984.0005511.9084489.4072016.909.909v18.134c-.0022049 1.7314412-1.4055582 3.1343472-3.137 3.136zm12.091-2.545c-.4035796-.0000337-.7676219.2425297-.923.615-.5747588 1.3801652-2.0438861 2.1626794-3.5099222 1.8695208-1.466036-.2931586-2.5212686-1.5804611-2.5210778-3.0755208v-14.955c.0005511-.5017984.4072016-.9084489.909-.909.5522847 0 1-.4477153 1-1s-.4477153-1-1-1c-.3096642.0037673-.616661.0578042-.909.16v-6.788c0-.01.033-.967.624-1.26.254-.126 1.119-.344 3.159.762-.7094453.39685378-1.2751142 1.00802819-1.616 1.746-.1626058.32689195-.1341354.7164203.074273 1.0161951s.5636259.4621431.9266853.4235839c.3630595-.0385593.6762483-.2719167.8170417-.608779.4131928-.90753752 1.4688299-1.32742738 2.3924806-.95163226s1.3862902 1.41340866 1.0485194 2.35163226c-1.7570175.1711998-3.2782645 1.2930283-3.961 2.921-.1434063.3303729-.0980817.7123391.1186585.9999765s.5714098.4365064.9285148.3897346c.3571051-.0467719.6614731-.2819582.7968267-.6157111.5187096-1.23799 1.8383709-1.9385467 3.1544217-1.6745594s2.2634435 1.4192935 2.2645783 2.7615594c-.0008578.2565602-.0361735.5118426-.105.759-.0742909.3694414.0404707.7516047.306 1.019.9836626.8601387 1.3306617 2.2401937.8708046 3.463289-.4598571 1.2230952-1.6301181 2.0326936-2.9368046 2.031711-.5522847 0-1 .4477153-1 1s.4477153 1 1 1c1.0008359.0009329 1.9799479-.2918271 2.816-.842.2076428.3361152.3187038.7229257.321 1.118-.0032808 1.1380017-.8794836 2.0829434-2.014 2.172-.3371481.0251062-.6387832.2188639-.801804.5150452-.1630208.2961814-.1653517.6546787-.006196.9529548.1828643.3495662.2776081.7384961.276 1.133 0 .6630412-.2633921 1.298926-.732233 1.767767-.468841.4688409-1.1047258.732233-1.767767.732233zm13.046-8.455c.5522847 0 1 .4477153 1 1s-.4477153 1-1 1-1-.4477153-1-1 .4477153-1 1-1z" fill-rule="nonzero"></path><path id="Path" d="m28 46h4c.5522847 0 1-.4477153 1-1s-.4477153-1-1-1h-4c-.5522847 0-1 .4477153-1 1s.4477153 1 1 1z"></path></g></g></g></svg>